<svg width="906" height="396" viewBox="0 0 906 396" fill="none" xmlns="http://www.w3.org/2000/svg">
<path d="M501.676 273.874C504.97 211.285 444.088 147.375 377.617 158.883C374.382 159.353 368.705 157.21 367.411 154.626C314.029 56.4864 128.47 87.135 100.794 205.267C96.5289 224.966 78.1759 219.916 63.5583 225.024C22.8524 236.385 0.734741 265.302 1.05829 306.431C-1.38293 372.044 59.323 395.382 116.029 393.768C251.058 391.507 387 400.285 521.588 389.482C564.294 386.37 580.235 329.065 547.647 302.849C534.735 291.606 518.411 284.178 501.676 273.874Z" fill="url(#paint0_linear)"/>
<path fill-rule="evenodd" clip-rule="evenodd" d="M336.537 119.789C349.038 128.75 359.629 140.32 367.411 154.626C368.705 157.21 374.382 159.353 377.617 158.883C444.088 147.375 504.97 211.285 501.676 273.874C506.949 277.121 512.181 280.082 517.279 282.967C528.359 289.238 538.803 295.148 547.647 302.849C565.965 317.586 568.949 342.146 560.465 361.381C570.318 361.264 580.171 361.139 590.024 361.014C649.037 360.264 708.035 359.514 766.891 360.5C835.46 362.455 908.866 334.198 905.914 254.759C906.305 204.963 879.56 169.952 830.338 156.197C825.291 154.431 819.876 153.668 814.594 152.924C801.378 151.061 788.998 149.316 785.313 132.277C751.847 -10.7497 527.468 -47.8569 462.917 70.9644C461.352 74.0922 454.488 76.6868 450.576 76.1181C406.713 68.5145 364.861 88.105 336.537 119.789Z" fill="url(#paint1_linear)"/>
<defs>
<linearGradient id="paint0_linear" x1="282.99" y1="96.0137" x2="282.99" y2="395.007" gradientUnits="userSpaceOnUse">
<stop stop-color="#8CD1D6"/>
<stop offset="1" stop-color="white" stop-opacity="0"/>
</linearGradient>
<linearGradient id="paint1_linear" x1="565" y1="0" x2="565" y2="362" gradientUnits="userSpaceOnUse">
<stop stop-color="#43BAB3"/>
<stop offset="1" stop-color="white" stop-opacity="0"/>
</linearGradient>
</defs>
</svg>
