<svg width="635" height="655" viewBox="0 0 635 655" fill="none" xmlns="http://www.w3.org/2000/svg">
<path d="M39.3006 180.512C64.2786 159.558 92.9117 142.966 115.632 119.393C145.58 87.7741 101.578 64.0984 178.227 36.7665C198.031 29.5305 220.477 33.6544 235.02 49.486C237.121 51.5927 237.277 51.6238 238.314 48.7713C259.907 -8.31875 330.749 -16.2747 367.543 32.28C378.83 44.6646 396.197 42.5124 411.398 43.9441C462.014 46.7011 514.144 51.7461 496.272 117.224C555.569 114.439 622.423 159.552 624.115 226.88C626.28 260.177 615.634 290.9 604.416 321.564C604.286 330.846 616.093 342.142 619.292 352.046C641.012 391.545 642.929 447.112 601.39 473.946C595.313 478.557 591.377 484.333 590.589 492.06C588.976 510.919 577.122 526.202 560.18 534.319C538.563 545.486 527.301 568.43 509.505 584.229C441.904 655.391 361.698 664.526 269.016 646.895C226.372 648.836 225.939 629.024 191.63 612.842C144.502 590.927 106.306 556.558 70.4751 520.107C53.1514 510.589 50.3595 490.839 45.3851 473.679C25.3281 428.187 25.684 378.894 32.769 332.094C-12.8186 291.278 -9.45351 216.829 39.3006 180.512Z" fill="#69BA43"/>
</svg>
