<svg width="32" height="32" viewBox="0 0 32 32" fill="none" xmlns="http://www.w3.org/2000/svg">
<path d="M16 3C8.26875 3 2 8.85257 2 16.0705C2 23.2885 8.26875 29.1411 16 29.1411C23.7313 29.1411 30 23.2885 30 16.0705C30 8.85257 23.7313 3 16 3ZM22.7281 12.8525C22.7375 12.9896 22.7375 13.1326 22.7375 13.2726C22.7375 17.5556 19.2437 22.4891 12.8594 22.4891C10.8906 22.4891 9.06562 21.9552 7.52812 21.0362C7.80937 21.0654 8.07813 21.077 8.36563 21.077C9.99063 21.077 11.4844 20.5635 12.675 19.6941C11.15 19.6649 9.86875 18.7313 9.43125 17.4476C9.96562 17.5206 10.4469 17.5206 10.9969 17.3893C10.2116 17.2403 9.50586 16.8422 8.99943 16.2625C8.49299 15.6828 8.21715 14.9572 8.21875 14.2092V14.1683C8.67812 14.4105 9.21875 14.5593 9.78438 14.5797C9.30888 14.2838 8.91893 13.883 8.6491 13.4128C8.37926 12.9425 8.23789 12.4174 8.2375 11.8839C8.2375 11.28 8.40625 10.7285 8.70938 10.2501C9.58095 11.2518 10.6685 12.071 11.9015 12.6546C13.1344 13.2382 14.485 13.573 15.8656 13.6373C15.375 11.4346 17.1375 9.65197 19.2563 9.65197C20.2563 9.65197 21.1562 10.0429 21.7906 10.6731C22.575 10.536 23.325 10.2617 23.9937 9.89413C23.7344 10.6439 23.1906 11.277 22.4688 11.6767C23.1688 11.6067 23.8438 11.4258 24.4688 11.172C23.9969 11.8197 23.4062 12.3945 22.7281 12.8525Z" fill="#69BA43"/>
</svg>
