<svg width="32" height="32" viewBox="0 0 32 32" fill="none" xmlns="http://www.w3.org/2000/svg">
<path d="M25.703 6.70346C23.9181 5.91617 22.0048 5.33426 20.004 5.00337C19.9862 5.00002 19.9678 5.00218 19.9513 5.00954C19.9348 5.0169 19.921 5.02909 19.9119 5.04444C19.6669 5.46547 19.3939 6.0143 19.2026 6.44788C17.0806 6.13779 14.9232 6.13779 12.8012 6.44788C12.5881 5.96736 12.3478 5.49882 12.0814 5.04444C12.0724 5.0289 12.0587 5.01643 12.0423 5.00868C12.0258 5.00094 12.0073 4.99829 11.9893 5.00108C9.98966 5.33198 8.07639 5.91389 6.29027 6.70232C6.2749 6.70862 6.26188 6.71937 6.25294 6.73313C2.62238 11.9532 1.62724 17.0444 2.11606 22.0716C2.11742 22.084 2.12133 22.0959 2.12754 22.1067C2.13376 22.1174 2.14216 22.1269 2.15222 22.1344C4.27129 23.6433 6.63482 24.7927 9.14385 25.5346C9.16134 25.5399 9.18005 25.5398 9.19753 25.5345C9.21502 25.5293 9.23046 25.5189 9.24185 25.5049C9.78084 24.7975 10.2615 24.0501 10.6721 23.2651C10.6966 23.2195 10.6733 23.1647 10.6243 23.1465C9.87067 22.8689 9.14045 22.5339 8.44037 22.1447C8.42779 22.1376 8.41719 22.1277 8.40952 22.1157C8.40186 22.1036 8.39736 22.09 8.39643 22.0758C8.39551 22.0617 8.39818 22.0475 8.40422 22.0347C8.41027 22.0218 8.41948 22.0106 8.43104 22.002C8.57804 21.8959 8.72503 21.7853 8.86503 21.6746C8.87763 21.6646 8.89281 21.6583 8.90888 21.6563C8.92494 21.6543 8.94126 21.6566 8.95603 21.6632C13.5374 23.6759 18.4991 23.6759 23.0268 21.6632C23.0416 21.6563 23.0581 21.6536 23.0744 21.6554C23.0907 21.6572 23.1061 21.6634 23.1189 21.6734C23.2589 21.7852 23.4048 21.8959 23.5529 22.002C23.5646 22.0104 23.574 22.0215 23.5802 22.0342C23.5864 22.047 23.5893 22.0611 23.5886 22.0752C23.588 22.0893 23.5837 22.1031 23.5762 22.1152C23.5688 22.1273 23.5584 22.1374 23.5459 22.1447C22.8483 22.5372 22.1226 22.8692 21.3608 23.1453C21.3491 23.1495 21.3385 23.156 21.3296 23.1645C21.3207 23.173 21.3137 23.1833 21.3092 23.1946C21.3047 23.206 21.3027 23.2181 21.3033 23.2303C21.304 23.2424 21.3073 23.2543 21.313 23.2651C21.733 24.049 22.2136 24.7952 22.7421 25.5038C22.7531 25.5183 22.7684 25.5292 22.786 25.5349C22.8035 25.5406 22.8224 25.5409 22.8401 25.5357C25.3535 24.7959 27.7209 23.646 29.8423 22.1344C29.8526 22.1273 29.8613 22.1182 29.8677 22.1075C29.8742 22.0969 29.8782 22.0851 29.8796 22.0728C30.4629 16.2605 28.9019 11.2104 25.7392 6.73541C25.7315 6.72087 25.7186 6.70953 25.703 6.70346ZM11.357 19.0103C9.978 19.0103 8.84053 17.7906 8.84053 16.2947C8.84053 14.7977 9.95583 13.5792 11.357 13.5792C12.7686 13.5792 13.8955 14.808 13.8734 16.2947C13.8734 17.7917 12.7581 19.0103 11.357 19.0103ZM20.6609 19.0103C19.2807 19.0103 18.1444 17.7906 18.1444 16.2947C18.1444 14.7977 19.2586 13.5792 20.6609 13.5792C22.0725 13.5792 23.1994 14.808 23.1773 16.2947C23.1773 17.7917 22.0736 19.0103 20.6609 19.0103Z" fill="#69BA43"/>
</svg>
