<svg width="681" height="829" viewBox="0 0 681 829" fill="none" xmlns="http://www.w3.org/2000/svg">
<path d="M557.206 224.655C538.436 208.355 516.821 195.332 499.808 177.064C477.389 152.567 511.254 135.09 453.168 113.254C438.162 107.479 420.993 110.33 409.695 122.211C408.065 123.789 407.945 123.811 407.192 121.623C391.48 77.816 337.567 70.827 308.869 107.365C300.1 116.66 286.885 114.793 275.275 115.686C236.643 117.129 196.826 120.295 209.59 170.448C164.411 167.552 112.839 201.075 110.659 252.383C108.57 277.741 116.282 301.302 124.432 324.827C124.408 331.905 115.255 340.364 112.686 347.872C95.6023 377.703 93.4071 420.042 124.728 441.042C129.301 444.636 132.226 449.092 132.724 454.993C133.706 469.392 142.543 481.198 155.354 487.608C171.691 496.402 179.975 514.042 193.336 526.319C243.945 581.454 304.983 589.463 375.888 577.23C408.379 579.266 408.971 564.167 435.346 552.277C471.571 536.183 501.15 510.478 528.953 483.155C542.288 476.124 544.678 461.104 548.697 448.086C564.591 413.664 564.971 376.079 560.186 340.307C595.486 309.782 593.902 252.979 557.206 224.655Z" fill="#69BA43"/>
<path d="M557.206 224.655C538.436 208.355 516.821 195.332 499.808 177.064C477.389 152.567 511.254 135.09 453.168 113.254C438.162 107.479 420.993 110.33 409.695 122.211C408.065 123.789 407.945 123.811 407.192 121.623C391.48 77.816 337.567 70.827 308.869 107.365C300.1 116.66 286.885 114.793 275.275 115.686C236.643 117.129 196.826 120.295 209.59 170.448C164.411 167.552 112.839 201.075 110.659 252.383C108.57 277.741 116.282 301.302 124.432 324.827C124.408 331.905 115.255 340.364 112.686 347.872C95.6023 377.703 93.4071 420.042 124.728 441.042C129.301 444.636 132.226 449.092 132.724 454.993C133.706 469.392 142.543 481.198 155.354 487.608C171.691 496.402 179.975 514.042 193.336 526.319C243.945 581.454 304.983 589.463 375.888 577.23C408.379 579.266 408.971 564.167 435.346 552.277C471.571 536.183 501.15 510.478 528.953 483.155C542.288 476.124 544.678 461.104 548.697 448.086C564.591 413.664 564.971 376.079 560.186 340.307C595.486 309.782 593.902 252.979 557.206 224.655Z" fill="url(#paint0_linear)"/>
<path d="M36.4047 528.05C48.441 501.903 65.0445 477.858 74.2876 450.473C86.265 413.94 42.1754 411.65 93.075 360.916C106.16 347.669 125.646 342.49 143.243 349.636C145.717 350.524 145.853 350.49 145.604 347.823C141.287 294.116 194.867 261.035 242.598 285.898C256.291 291.522 269.35 283.252 282.033 278.658C323.504 261.758 367.049 246.113 377.507 305.109C423.819 280.511 494.26 291.285 521.044 344.375C535.351 370.13 538.453 398.664 541.075 427.368C544.477 434.823 558.176 439.383 564.472 446.079C596.741 469.404 619.262 513.023 596.219 550.111C593.107 556.084 592.145 562.179 594.434 568.642C600.269 584.301 596.574 600.97 586.108 613.84C573.059 630.908 572.73 653.467 564.484 672.79C537.368 755.088 476.753 792.642 396.063 813.546C362.734 831.187 354.904 815.539 321.387 815.573C275.465 815.867 231.973 802.854 189.584 787.286C172.151 786.228 162.461 771.521 152.006 759.704C118.801 730.969 100.465 691.499 88.4463 651.479C36.6148 636.109 11.1804 575.428 36.4047 528.05Z" fill="#69BA43"/>
<path d="M36.4047 528.05C48.441 501.903 65.0445 477.858 74.2876 450.473C86.265 413.94 42.1754 411.65 93.075 360.916C106.16 347.669 125.646 342.49 143.243 349.636C145.717 350.524 145.853 350.49 145.604 347.823C141.287 294.116 194.867 261.035 242.598 285.898C256.291 291.522 269.35 283.252 282.033 278.658C323.504 261.758 367.049 246.113 377.507 305.109C423.819 280.511 494.26 291.285 521.044 344.375C535.351 370.13 538.453 398.664 541.075 427.368C544.477 434.823 558.176 439.383 564.472 446.079C596.741 469.404 619.262 513.023 596.219 550.111C593.107 556.084 592.145 562.179 594.434 568.642C600.269 584.301 596.574 600.97 586.108 613.84C573.059 630.908 572.73 653.467 564.484 672.79C537.368 755.088 476.753 792.642 396.063 813.546C362.734 831.187 354.904 815.539 321.387 815.573C275.465 815.867 231.973 802.854 189.584 787.286C172.151 786.228 162.461 771.521 152.006 759.704C118.801 730.969 100.465 691.499 88.4463 651.479C36.6148 636.109 11.1804 575.428 36.4047 528.05Z" fill="url(#paint1_linear)"/>
<defs>
<linearGradient id="paint0_linear" x1="131.038" y1="132.042" x2="555.873" y2="543.832" gradientUnits="userSpaceOnUse">
<stop stop-color="#68B843"/>
<stop offset="1" stop-color="white" stop-opacity="0"/>
</linearGradient>
<linearGradient id="paint1_linear" x1="221.817" y1="260.692" x2="465.33" y2="779.508" gradientUnits="userSpaceOnUse">
<stop stop-color="#68B843"/>
<stop offset="1" stop-color="white" stop-opacity="0"/>
</linearGradient>
</defs>
</svg>
