<svg width="639" height="359" viewBox="0 0 639 359" fill="none" xmlns="http://www.w3.org/2000/svg">
<path d="M137.317 237.861C134.023 175.272 194.905 111.362 261.376 122.87C264.611 123.339 270.288 121.196 271.582 118.613C324.964 20.4727 510.523 51.1213 538.2 169.253C542.464 188.952 560.817 183.903 575.435 189.011C616.141 200.372 638.258 229.288 637.935 270.417C640.376 336.03 579.67 359.369 522.964 357.754C387.935 355.494 251.994 364.271 117.405 353.468C74.6995 350.356 58.7583 293.051 91.3466 266.836C104.258 255.592 120.582 248.165 137.317 237.861Z" fill="url(#paint0_linear)"/>
<path fill-rule="evenodd" clip-rule="evenodd" d="M140.202 208.941C153.045 157.27 205.219 113.15 261.383 122.874C264.618 123.344 270.295 121.2 271.589 118.617C284.788 94.3517 306.067 77.9596 331.042 68.8166C314.608 50.8332 290.591 39.7991 265.433 44.1559C263.162 44.4858 259.176 42.9806 258.268 41.1662C220.786 -27.7616 90.5004 -6.23587 71.0679 76.7332C68.9286 86.6178 61.74 87.63 54.066 88.7105C50.9991 89.1423 47.8546 89.5851 44.924 90.6095C16.3433 98.5889 0.81385 118.898 1.04101 147.785C-0.673009 193.867 41.9503 210.259 81.7651 209.125C101.222 208.799 120.705 208.8 140.202 208.941Z" fill="url(#paint1_linear)"/>
<defs>
<linearGradient id="paint0_linear" x1="356.003" y1="60" x2="356.003" y2="358.993" gradientUnits="userSpaceOnUse">
<stop stop-color="#8CD1D6"/>
<stop offset="1" stop-color="white" stop-opacity="0"/>
</linearGradient>
<linearGradient id="paint1_linear" x1="198.993" y1="6.10352e-05" x2="198.993" y2="209.995" gradientUnits="userSpaceOnUse">
<stop stop-color="#43BAB3"/>
<stop offset="1" stop-color="white" stop-opacity="0"/>
</linearGradient>
</defs>
</svg>
