<svg width="785" height="812" viewBox="0 0 785 812" fill="none" xmlns="http://www.w3.org/2000/svg">
<path d="M77.3905 289.362C93.9943 263.329 115.087 240.209 128.938 212.444C147.045 175.35 101.002 166.368 162.2 119.943C177.964 107.79 199.246 105.173 216.683 115.389C219.153 116.701 219.301 116.685 219.441 113.81C222.991 56.0242 284.35 28.7804 330.822 62.3214C344.382 70.3385 359.368 63.4771 373.405 60.4724C419.585 48.648 467.757 38.4663 469.87 102.792C522.303 83.4947 594.793 105.416 614.974 165.881C626.145 195.409 625.11 226.23 623.543 257.161C625.999 265.599 639.725 272.484 645.34 280.543C675.777 310.153 692.899 359.908 663.066 395.949C658.891 401.843 656.961 408.185 658.395 415.402C662.175 432.929 655.775 450.117 642.824 462.257C626.523 478.48 622.778 502.435 611.19 521.771C570.259 605.311 500.825 636.27 412.778 646.533C375.053 660.354 369.173 642.543 333.904 637.602C285.543 631.098 241.745 610.795 199.492 587.937C181.31 584.222 173.33 567.135 164.111 553.01C133.505 517.505 120.161 472.786 113.546 428.419C61.3282 404.37 43.7118 336.029 77.3905 289.362Z" fill="#69BA43"/>
<path d="M77.3905 289.362C93.9943 263.329 115.087 240.209 128.938 212.444C147.045 175.35 101.002 166.368 162.2 119.943C177.964 107.79 199.246 105.173 216.683 115.389C219.153 116.701 219.301 116.685 219.441 113.81C222.991 56.0242 284.35 28.7804 330.822 62.3214C344.382 70.3385 359.368 63.4771 373.405 60.4724C419.585 48.648 467.757 38.4663 469.87 102.792C522.303 83.4947 594.793 105.416 614.974 165.881C626.145 195.409 625.11 226.23 623.543 257.161C625.999 265.599 639.725 272.484 645.34 280.543C675.777 310.153 692.899 359.908 663.066 395.949C658.891 401.843 656.961 408.185 658.395 415.402C662.175 432.929 655.775 450.117 642.824 462.257C626.523 478.48 622.778 502.435 611.19 521.771C570.259 605.311 500.825 636.27 412.778 646.533C375.053 660.354 369.173 642.543 333.904 637.602C285.543 631.098 241.745 610.795 199.492 587.937C181.31 584.222 173.33 567.135 164.111 553.01C133.505 517.505 120.161 472.786 113.546 428.419C61.3282 404.37 43.7118 336.029 77.3905 289.362Z" fill="url(#paint0_linear)"/>
<path d="M205.626 470.846C219.719 448.732 237.62 429.092 249.378 405.507C264.748 373.998 225.679 366.375 277.616 326.934C290.994 316.61 309.054 314.384 323.849 323.059C325.944 324.173 326.07 324.16 326.189 321.717C329.21 272.635 381.28 249.486 420.711 277.969C432.216 284.777 444.934 278.947 456.845 276.393C496.033 266.343 536.912 257.688 538.696 312.325C583.192 295.927 644.702 314.537 661.818 365.891C671.294 390.97 670.411 417.149 669.077 443.421C671.16 450.588 682.806 456.434 687.57 463.278C713.394 488.424 727.916 530.682 702.596 561.299C699.052 566.305 697.413 571.692 698.63 577.822C701.835 592.709 696.402 607.308 685.41 617.622C671.575 631.404 668.394 651.751 658.558 668.176C623.814 739.138 564.891 765.444 490.176 774.172C458.162 785.917 453.175 770.79 423.247 766.598C382.211 761.08 345.048 743.841 309.196 724.432C293.768 721.279 286.999 706.767 279.178 694.77C253.211 664.618 241.894 626.636 236.287 588.953C191.98 568.534 177.041 510.488 205.626 470.846Z" fill="#69BA43"/>
<path d="M205.626 470.846C219.719 448.732 237.62 429.092 249.378 405.507C264.748 373.998 225.679 366.375 277.616 326.934C290.994 316.61 309.054 314.384 323.849 323.059C325.944 324.173 326.07 324.16 326.189 321.717C329.21 272.635 381.28 249.486 420.711 277.969C432.216 284.777 444.934 278.947 456.845 276.393C496.033 266.343 536.912 257.688 538.696 312.325C583.192 295.927 644.702 314.537 661.818 365.891C671.294 390.97 670.411 417.149 669.077 443.421C671.16 450.588 682.806 456.434 687.57 463.278C713.394 488.424 727.916 530.682 702.596 561.299C699.052 566.305 697.413 571.692 698.63 577.822C701.835 592.709 696.402 607.308 685.41 617.622C671.575 631.404 668.394 651.751 658.558 668.176C623.814 739.138 564.891 765.444 490.176 774.172C458.162 785.917 453.175 770.79 423.247 766.598C382.211 761.08 345.048 743.841 309.196 724.432C293.768 721.279 286.999 706.767 279.178 694.77C253.211 664.618 241.894 626.636 236.287 588.953C191.98 568.534 177.041 510.488 205.626 470.846Z" fill="url(#paint1_linear)"/>
<defs>
<linearGradient id="paint0_linear" x1="613.275" y1="93.9301" x2="303.32" y2="597.836" gradientUnits="userSpaceOnUse">
<stop stop-color="#68B843"/>
<stop offset="1" stop-color="white" stop-opacity="0"/>
</linearGradient>
<linearGradient id="paint1_linear" x1="537.638" y1="224.284" x2="342.269" y2="711.982" gradientUnits="userSpaceOnUse">
<stop stop-color="white" stop-opacity="0"/>
<stop offset="0.774762" stop-color="#68B843"/>
</linearGradient>
</defs>
</svg>
