<svg xmlns="http://www.w3.org/2000/svg" xmlns:xlink="http://www.w3.org/1999/xlink"><symbol id="icon-discord" viewBox="0 0 32 32"><path d="M25.703 6.703a23.714 23.714 0 00-5.699-1.7.089.089 0 00-.092.041c-.245.421-.518.97-.71 1.404-2.121-.31-4.279-.31-6.4 0-.214-.48-.454-.95-.72-1.404a.09.09 0 00-.093-.043c-2 .331-3.913.913-5.699 1.701a.081.081 0 00-.037.031c-3.63 5.22-4.626 10.311-4.137 15.339a.09.09 0 00.036.062 23.58 23.58 0 006.992 3.4.093.093 0 00.098-.03 15.725 15.725 0 001.43-2.239.084.084 0 00-.048-.119 15.572 15.572 0 01-2.184-1.001.085.085 0 01-.01-.143c.148-.106.295-.217.435-.327a.088.088 0 01.091-.012c4.581 2.013 9.543 2.013 14.07 0a.09.09 0 01.093.01c.14.112.286.223.434.329a.086.086 0 01.036.073.087.087 0 01-.043.07c-.698.392-1.423.724-2.185 1a.088.088 0 00-.052.05.086.086 0 00.004.07c.42.784.9 1.53 1.43 2.239a.09.09 0 00.097.032c2.514-.74 4.88-1.89 7.002-3.402a.087.087 0 00.038-.061c.583-5.813-.978-10.863-4.14-15.338a.07.07 0 00-.037-.032zM11.357 19.01c-1.379 0-2.516-1.22-2.516-2.715 0-1.497 1.115-2.716 2.516-2.716 1.412 0 2.539 1.229 2.516 2.716 0 1.497-1.115 2.715-2.516 2.715zm9.304 0c-1.38 0-2.517-1.22-2.517-2.715 0-1.497 1.115-2.716 2.517-2.716 1.412 0 2.538 1.229 2.516 2.716 0 1.497-1.103 2.715-2.516 2.715z"/></symbol><symbol id="icon-twitter" viewBox="0 0 32 32"><path d="M16 3C8.269 3 2 8.853 2 16.07c0 7.218 6.269 13.071 14 13.071s14-5.852 14-13.07S23.731 3 16 3zm6.728 9.852c.01.138.01.28.01.42 0 4.284-3.494 9.217-9.879 9.217a10.36 10.36 0 01-5.33-1.453c.28.03.55.041.837.041a7.284 7.284 0 004.309-1.383c-1.525-.03-2.806-.963-3.244-2.246.535.073 1.016.073 1.566-.059a3.519 3.519 0 01-1.998-1.127 3.108 3.108 0 01-.78-2.053v-.04c.46.242 1 .39 1.565.41a3.335 3.335 0 01-1.135-1.166 3.073 3.073 0 01-.411-1.53c0-.603.168-1.154.471-1.633a9.758 9.758 0 003.193 2.405c1.232.583 2.583.918 3.964.982-.491-2.202 1.271-3.985 3.39-3.985 1 0 1.9.39 2.535 1.021a7.161 7.161 0 002.203-.779 3.276 3.276 0 01-1.525 1.783c.7-.07 1.375-.251 2-.505a7.029 7.029 0 01-1.74 1.68z"/></symbol> <view id="icon-discord-view-green" viewBox="0 0 32 32"/><view id="icon-discord-view-white" viewBox="0 42 32 32"/><view id="icon-twitter-view-green" viewBox="0 84 32 32"/><view id="icon-twitter-view-white" viewBox="0 126 32 32"/> <use xlink:href="#icon-discord" x="0" y="0" width="32" height="32" style="fill:#69BA43"/><use xlink:href="#icon-discord" x="0" y="42" width="32" height="32" style="fill:#ffffff"/><use xlink:href="#icon-twitter" x="0" y="84" width="32" height="32" style="fill:#69BA43"/><use xlink:href="#icon-twitter" x="0" y="126" width="32" height="32" style="fill:#ffffff"/></svg>