<svg width="60" height="60" viewBox="0 0 60 60" fill="none" xmlns="http://www.w3.org/2000/svg">
<g clip-path="url(#clip0)">
<path fill-rule="evenodd" clip-rule="evenodd" d="M51.366 15.6792C50.1672 16.0212 49.0548 16.596 48.0756 17.3916C47.6964 17.172 47.3052 16.9884 46.8888 16.8288C45.7764 16.4004 44.6136 16.2048 43.4772 16.2168C41.9124 16.2288 40.3704 16.632 39.0132 17.3784C38.952 16.278 38.7072 15.1896 38.2788 14.1372C37.9848 13.416 37.6188 12.7428 37.1904 12.1068H37.1784C36.0048 10.3584 34.3044 8.96399 32.25 8.05919C32.5308 7.61879 32.7876 7.16639 33.0084 6.68999C33.3264 6.00479 33.5712 5.30759 33.7428 4.59839C41.0808 5.62559 47.4156 9.78358 51.366 15.6792Z" fill="#69BA43"/>
<path fill-rule="evenodd" clip-rule="evenodd" d="M20.2404 58.3248C8.4504 54.24 0 43.0248 0 29.8536C0 23.0784 2.238 16.8288 6.0048 11.802C7.8024 12.108 9.2952 12.7188 10.4808 13.6116C11.3004 14.2236 11.9724 14.9808 12.4992 15.8616C13.2816 17.1948 13.6248 18.6744 13.6728 20.0568C13.746 21.72 13.404 23.2248 12.9396 24.1416C12.744 24.5208 12.72 24.9732 12.8784 25.3764C13.0248 25.7796 13.3428 26.0976 13.734 26.2572C14.5656 26.5752 15.324 27.0276 16.0092 27.5784C18.7728 29.8164 19.6656 33.4368 18.2352 36.6036C17.9292 37.2636 17.6844 37.9368 17.5008 38.622C17.4636 38.7072 17.4396 38.8056 17.4276 38.9028C16.9632 40.6032 16.8528 42.3144 17.0856 43.9536C17.3304 45.7272 17.9544 47.4024 18.9684 48.882C19.9344 50.2644 20.4972 51.8664 20.6808 53.5416C20.8644 55.1076 20.718 56.7468 20.2404 58.3248Z" fill="#69BA43"/>
<path fill-rule="evenodd" clip-rule="evenodd" d="M60 34.0236C57.9696 48.6996 45.3732 60 30.1464 60C27.7368 60 25.4016 59.7192 23.1636 59.1804C23.616 57.6636 23.8236 56.1108 23.7876 54.558C23.7504 51.9036 22.9932 49.3116 21.4884 47.1348C21.4512 47.0736 21.4032 47.0124 21.366 46.9512C20.082 44.982 19.7148 42.4872 20.3016 39.9684C25.0584 35.2848 32.262 35.1744 37.9368 39.7728C38.4132 40.164 38.8668 40.5924 39.306 41.0808C39.6 41.3988 40.0032 41.5704 40.4316 41.5704C40.5168 41.5704 40.6032 41.5704 40.6764 41.5584C41.19 41.4732 41.6184 41.13 41.838 40.6656C42.4008 39.3936 43.2072 38.2068 44.2224 37.1436C45.2868 36.0312 46.8768 34.8072 48.8088 33.9144C50.7528 33.0096 53.04 32.4468 55.4988 32.6796V32.6916C56.9424 32.8128 58.4592 33.2292 60 34.0236Z" fill="#69BA43"/>
<path fill-rule="evenodd" clip-rule="evenodd" d="M55.6464 29.5968C53.3472 29.4012 51.1704 29.7684 49.2252 30.4404C46.1316 31.5048 43.6116 33.3636 42.0216 35.0148C41.2632 35.8092 40.6032 36.654 40.0404 37.5468C39.9792 37.4976 39.918 37.4484 39.8568 37.4004C34.2672 32.8632 27.4068 32.1048 21.8544 35.064C22.1604 33.0456 21.8664 30.9912 21.0228 29.1564C23.1636 25.4388 28.2144 23.4456 32.0292 24.9372C34.2552 25.806 36.774 24.888 37.8756 22.8336C37.9368 22.7604 37.986 22.6872 38.022 22.6008C38.034 22.5768 38.046 22.5636 38.046 22.5396C39.3552 19.824 42.816 18.5532 45.7872 19.6896C46.032 19.7748 46.2636 19.8852 46.4844 20.0076C46.7784 20.154 47.0472 20.3376 47.292 20.5332C47.928 21.0348 48.8328 20.9496 49.3716 20.3616C50.3016 19.3344 51.5976 18.6744 52.98 18.4656C54.6552 21.8184 55.6212 25.5972 55.6464 29.5968Z" fill="#69BA43"/>
<path fill-rule="evenodd" clip-rule="evenodd" d="M35.2584 21.2796C35.2584 21.2916 35.2464 21.2916 35.2464 21.3036C34.8792 22.05 33.9372 22.404 33.1428 22.086C28.3608 20.2152 22.38 22.2084 19.2012 26.4036C18.822 25.9752 18.4068 25.584 17.9412 25.2048C17.4036 24.7764 16.8408 24.3972 16.2408 24.0672C16.8768 21.9756 16.974 19.2852 16.1916 16.7412C15.9468 15.9096 15.5928 15.09 15.1404 14.3076C14.5656 13.3416 13.746 12.3024 12.5724 11.3724C17.1336 7.01879 23.3352 4.34039 30.1464 4.34039C30.3048 4.34039 30.4644 4.34039 30.6228 4.35239C30.5244 4.70759 30.39 5.04959 30.2316 5.39159C29.8284 6.26039 29.2776 7.04279 28.5924 7.72799C28.2012 8.11919 28.0548 8.69399 28.2012 9.23279C28.3596 9.77039 28.788 10.1748 29.3388 10.2972C29.7792 10.4076 30.2076 10.53 30.6108 10.6884C30.672 10.7124 30.7332 10.7376 30.7824 10.7616C30.7944 10.7616 30.7944 10.7616 30.7944 10.7616C32.9712 11.6424 34.6224 13.2444 35.442 15.2868C36.2256 17.22 36.1512 19.3476 35.2584 21.2796Z" fill="#69BA43"/>
</g>
<defs>
<clipPath id="clip0">
<rect width="60" height="60" fill="white"/>
</clipPath>
</defs>
</svg>
