<svg width="192" height="329" viewBox="0 0 192 329" fill="none" xmlns="http://www.w3.org/2000/svg">
<path d="M129.905 195.601C120.421 205.018 115.679 219.616 114.729 234.208C111.886 244.569 102.401 251.629 91.4924 251.629C81.0584 251.629 71.579 244.569 68.7305 234.208C67.781 209.256 76.3161 184.769 91.4924 167.348L132.274 125.912C139.86 117.437 143.652 106.606 143.652 95.3077C143.652 68.9407 122.315 47.2824 95.76 47.2824C69.2053 47.2824 47.8676 68.9407 46.4433 101.431C44.0748 111.32 34.5902 118.38 23.6814 118.38C10.884 118.38 0.449951 108.025 0.449951 95.3129C0.449951 42.5737 43.1253 0.199982 95.7652 0.199982C148.4 0.199982 191.55 42.5737 191.55 95.3129C191.55 117.914 183.015 139.572 168.313 156.993L129.905 195.601ZM108.093 321.784C112.835 317.547 115.204 311.424 115.204 305.306C115.204 299.188 112.835 293.537 108.093 288.828C103.826 284.591 97.659 282.239 91.4977 282.239C85.3363 282.239 79.6446 284.591 74.9023 288.828C70.6347 293.537 68.261 299.188 68.261 305.306C68.261 311.424 70.6295 317.547 74.9023 321.784C79.6446 326.493 85.3363 328.845 91.4977 328.845C97.659 328.845 103.826 326.493 108.093 321.784Z" fill="white"/>
</svg>
